<?xml version="1.0" encoding="utf-8"?>
<svg xmlns="http://www.w3.org/2000/svg"
	xmlns:xlink="http://www.w3.org/1999/xlink"
	width="561px" height="552px" viewBox="0 0 561 552">
<path fillRule="evenodd" d="M 393.62 397.94C 363.05 431.33 325.47 448.02 280.89 448.02 236.3 448.02 198.72 431.33 168.15 397.94 137.58 364.56 122.29 324.04 122.29 276.38 122.29 228.73 137.58 188.08 168.15 154.44 198.72 120.8 236.3 103.98 280.89 103.98 325.47 103.98 363.05 120.8 393.62 154.44 424.19 188.08 439.48 228.73 439.48 276.38 439.48 324.04 424.19 364.56 393.62 397.94ZM 561.01 276C 561.01 197.51 533.99 131.88 479.99 79.13 425.97 26.38 359.48-0 280.51-0 201.52-0 135.02 26.38 81.02 79.13 27.01 131.88 0.01 197.51 0.01 276 0.01 354.49 27.01 420.11 81.02 472.87 135.02 525.62 201.52 552 280.51 552 359.48 552 425.97 525.62 479.99 472.87 533.99 420.11 561.01 354.49 561.01 276Z" fill="rgb(255,227,0)" opacity="0.14"/></svg>