<?xml version="1.0" encoding="utf-8"?>
<svg xmlns="http://www.w3.org/2000/svg"
	xmlns:xlink="http://www.w3.org/1999/xlink"
	width="23px" height="24px" viewBox="0 0 23 24">
<path fillRule="evenodd" d="M 5.58 0C 2.94 0 0.8 2.1 0.8 4.7 0.8 7.3 5.58 13.52 5.58 13.52 5.58 13.52 10.36 7.3 10.36 4.7 10.36 2.1 8.22 0 5.58 0ZM 5.58 6.76C 4.26 6.76 3.19 5.71 3.19 4.41 3.19 3.11 4.26 2.06 5.58 2.06 6.9 2.06 7.97 3.11 7.97 4.41 7.97 5.71 6.9 6.76 5.58 6.76ZM 11.5 1.35C 11.24 1.35 10.98 1.36 10.72 1.38 11.06 1.89 11.32 2.45 11.49 3.04 11.49 3.04 11.5 3.04 11.5 3.04 13.08 3.04 14.79 5.19 15.63 8.45 15.63 8.45 10.5 8.45 10.5 8.45 10.21 9.02 9.89 9.59 9.55 10.14 9.55 10.14 15.96 10.14 15.96 10.14 16.08 10.94 16.14 11.79 16.14 12.68 16.14 13.69 16.06 14.65 15.91 15.55 15.91 15.55 7.1 15.55 7.1 15.55 7.02 15.06 6.96 14.54 6.92 14.02 6.92 14.02 6.68 14.34 6.68 14.34 6.68 14.34 5.58 15.77 5.58 15.77 5.58 15.77 5.35 15.46 5.35 15.46 5.35 15.46 5.36 15.55 5.36 15.55 5.36 15.55 2.16 15.55 2.16 15.55 1.87 14.64 1.72 13.68 1.72 12.68 1.72 11.99 1.79 11.32 1.93 10.67 1.52 10.02 1.12 9.33 0.75 8.64 0.27 9.89-0 11.25-0 12.68-0 18.93 5.15 24 11.5 24 16.21 24 20.25 21.22 22.03 17.24 22.03 17.24 22.15 17.24 22.15 17.24 22.15 17.24 22.15 16.97 22.15 16.97 22.7 15.65 23.01 14.2 23.01 12.68 23.01 6.42 17.86 1.35 11.5 1.35ZM 15.51 3.89C 17.59 4.81 19.29 6.43 20.3 8.45 20.3 8.45 17.4 8.45 17.4 8.45 16.99 6.66 16.34 5.09 15.51 3.89ZM 2.89 17.24C 2.89 17.24 5.69 17.24 5.69 17.24 6.1 18.89 6.72 20.34 7.5 21.46 5.53 20.59 3.91 19.1 2.89 17.24ZM 11.5 22.31C 9.98 22.31 8.33 20.31 7.47 17.24 7.47 17.24 15.54 17.24 15.54 17.24 14.67 20.31 13.03 22.31 11.5 22.31ZM 15.51 21.46C 16.29 20.34 16.91 18.89 17.32 17.24 17.32 17.24 20.12 17.24 20.12 17.24 19.1 19.1 17.48 20.59 15.51 21.46ZM 20.85 15.55C 20.85 15.55 17.65 15.55 17.65 15.55 17.78 14.63 17.86 13.67 17.86 12.68 17.86 11.8 17.8 10.96 17.69 10.14 17.69 10.14 20.94 10.14 20.94 10.14 21.17 10.95 21.29 11.8 21.29 12.68 21.29 13.68 21.13 14.64 20.85 15.55Z" fill="rgb(255,255,255)"/></svg>