<?xml version="1.0" encoding="utf-8"?>
<svg xmlns="http://www.w3.org/2000/svg"
	xmlns:xlink="http://www.w3.org/1999/xlink"
	width="506px" height="824px" viewBox="0 0 506 824">
<path fillRule="evenodd" d="M 256.28 594.03C 210.66 643.87 154.59 668.78 88.08 668.78 21.55 668.78-34.51 643.87-80.12 594.03-125.73 544.21-148.54 483.72-148.54 412.57-148.54 341.43-125.73 280.75-80.12 230.54-34.51 180.32 21.55 155.21 88.08 155.21 154.59 155.21 210.66 180.32 256.28 230.54 301.89 280.75 324.7 341.43 324.7 412.57 324.7 483.72 301.89 544.21 256.28 594.03ZM 506.01 412C 506.01 294.84 465.7 196.87 385.13 118.12 304.54 39.37 205.34-0 87.51-0-30.34-0-129.55 39.37-210.12 118.12-290.71 196.87-330.99 294.84-330.99 412-330.99 529.17-290.71 627.13-210.12 705.87-129.55 784.62-30.34 823.99 87.51 823.99 205.34 823.99 304.54 784.62 385.13 705.87 465.7 627.13 506.01 529.17 506.01 412Z" fill="rgb(255,227,0)" opacity="0.71"/></svg>